<svg xmlns="http://www.w3.org/2000/svg" viewBox="0 0 474.86 474.86"><defs><style>
<!-- .cls-1{fill:#1d1d1b;} -->
</style></defs><g id="Capa_2" data-name="Capa 2"><g id="Capa_1-2" data-name="Capa 1"><path class="cls-1" d="M310.78,252.68l-22.93-86.27a35.14,35.14,0,0,0-43-24.93l-61.15,16.26a35.23,35.23,0,0,0-25,43.08L181.65,287c-14.61,6.37-21.2,21.54-16.7,36.46,4.71,15.63,21.23,24.49,37,20.3l53.4-14.2L265.84,369l-33.42,8.88a8,8,0,0,0-5.67,9.77h0a8,8,0,0,0,9.77,5.66l33.92-9,15.23-4,33.13-8.81a8,8,0,0,0,5.66-9.77h0A8,8,0,0,0,314.7,356l-32.86,8.74-10.48-39.43,50-13.3c15.78-4.2,25.73-20.08,22.1-36A30.1,30.1,0,0,0,310.78,252.68ZM187.59,172.62,249,156.3a19.69,19.69,0,0,1,24,13.92l.88,3.33-34.18,9.09a7.81,7.81,0,0,0-5.78,8.86,7.71,7.71,0,0,0,9.72,6l34.19-9.08,2.73,10.28-19.72,5.24c-4.2,1.12-6.6,5.82-5.48,10s5.53,7.09,9.74,6l19.72-5.24L287.51,225l-34.18,9.08a7.82,7.82,0,0,0-5.78,8.86,7.72,7.72,0,0,0,9.73,6l34.18-9.09,4.25,16-99.42,26.43-4.25-16,34-9a7.8,7.8,0,0,0,5.77-8.86,7.7,7.7,0,0,0-9.72-6l-34,9-2.74-10.29,19.94-5.3c4.21-1.12,6.61-5.82,5.49-10s-5.53-7.1-9.74-6l-19.94,5.3-2.73-10.28,34-9.05a7.8,7.8,0,0,0,5.77-8.86,7.71,7.71,0,0,0-9.72-6l-34,9-.85-3.19A19.82,19.82,0,0,1,187.59,172.62ZM317.83,295.84,197.16,327.91a14.26,14.26,0,0,1-17.52-10,13.66,13.66,0,0,1,1-9.74,14.59,14.59,0,0,1,7.16-7,15.73,15.73,0,0,1,2.25-.78l120.09-31.92.09,0a15.52,15.52,0,0,1,2.2-.31l.11,0,0,0h.15a14.6,14.6,0,0,1,9.66,2.51,13,13,0,0,1,5.61,7.49A14.3,14.3,0,0,1,317.83,295.84Z"/><path class="cls-1" d="M235.22,230.68A11.23,11.23,0,1,0,223,223.56,11.23,11.23,0,0,0,235.22,230.68Z"/><path class="cls-1" d="M315.18,158.77l-.36-1.36A94.9,94.9,0,1,0,131.4,206.17l.36,1.36c-17.08,9.4-24.43,27.82-19.56,46.14,5.8,21.82,27.63,34.42,49.58,29.2l4.39-1.16-20.73-78c-11.2-42.13,12.74-86,54.51-98.44,43.37-12.92,89,12.48,100.59,55.91l21,79.19,4.52-1.2c21.65-6.37,34.55-28.21,28.75-50A40.86,40.86,0,0,0,315.18,158.77Z"/><path class="cls-1" d="M36.23,244.61l23.61-.13.06,10.79-49,.27-.08-15.07,22-2.64-22.08-2.26-.08-15.13,49-.27.06,11.14-23.05.13,23.06,2.81,0,7Z"/><path class="cls-1" d="M54.84,201.9l-1,5.45,7.92,2.3-2,11.6L12.88,204.81,15.45,190l49.71.43-2.08,11.94Zm-8.66-.45-16.33-1L45.56,205Z"/><path class="cls-1" d="M49.82,174.14l18.95,6.51-3.66,10.67L18.73,175.39l3.14-9.15,20.77.77-18.81-6.47,3.66-10.66,46.38,15.93-3.07,8.94Z"/><path class="cls-1" d="M48.25,130.89l34.49,18L77,159.78,42.55,141.83l-3,5.78-9-4.69,11.75-22.56,9,4.69Z"/><path class="cls-1" d="M46.1,114.33,59,96.13l8.3,5.86-5.7,8.07,7.39,5.21,4.81-6.81,7.72,5.46-4.81,6.81,8.36,5.9,5.74-8.13,8.3,5.86-12.9,18.26Z"/><path class="cls-1" d="M92.4,102,107,115.76,99.22,124,63.56,90.29l6.64-7,18.6,9.28L74.33,78.88l7.75-8.2,35.66,33.66-6.49,6.88Z"/><path class="cls-1" d="M128.52,95.74l-9.5,8L87.5,66.14l9.5-8Z"/><path class="cls-1" d="M102.17,54l18.46-12.47,5.69,8.41-8.19,5.54,5.06,7.49,6.91-4.67,5.3,7.83-6.91,4.67,5.73,8.48,8.24-5.57,5.69,8.41L129.63,94.6Z"/><path class="cls-1" d="M149.82,58.83l8.74,18-10.15,4.92L127,37.64l8.7-4.21,14.09,15.28L141.15,30.8l10.15-4.92L172.68,70l-8.51,4.12Z"/><path class="cls-1" d="M159.39,22.7,171.53,19c9.32-2.82,15.57-.31,17.92,7.47l7.05,23.34C198.85,57.63,195,63.19,185.71,66l-12.14,3.67Zm25.28,30.87L177.54,30c-.33-1.08-.95-1.91-2.49-1.45l-.87.27,8.35,27.63.87-.26C184.94,55.68,185,54.64,184.67,53.57Z"/><path class="cls-1" d="M198.59,49,195.4,25.58c-1.2-8.75,3.1-14.07,12-15.28s14.52,2.75,15.71,11.5l3.2,23.39c1.2,8.82-3.09,14.14-12,15.36S199.8,57.79,198.59,49Zm15.68-.65L210.68,22c-.14-1-.61-1.83-1.92-1.65s-1.49,1.05-1.34,2.09L211,48.76c.14,1,.61,1.9,1.86,1.73S214.41,49.36,214.27,48.32Z"/><path class="cls-1" d="M246,8.89l12.36,1-3.11,38.76,10,.8-.81,10.12-22.35-1.78Z"/><path class="cls-1" d="M282.52,55.09l-5.4-1.23-2.7,7.79-11.48-2.6,18.77-46,14.63,3.31L293.41,66l-11.82-2.68Zm.88-8.64,1.82-16.26-5.31,15.47Z"/><path class="cls-1" d="M325.64,26l11.23,5.28L320.32,66.5l9.06,4.27L325.06,80l-20.29-9.54Z"/><path class="cls-1" d="M336.16,87l-10.61-6.42,25.39-42L361.55,45Z"/><path class="cls-1" d="M358.8,78.56l-12.33,15.8-8.9-6.94,30.18-38.67,7.62,6-7.49,19.4,12.24-15.69,8.9,6.94L358.84,104l-7.46-5.82Z"/><path class="cls-1" d="M394.77,70.78l15.48,16-7.31,7.06-6.86-7.1L389.58,93l5.79,6-6.8,6.57-5.79-6-7.36,7.11,6.91,7.16-7.3,7.06L359.5,104.86Z"/><path class="cls-1" d="M391.69,129.68l-3.24-4.49-7.18,4.05-6.89-9.54,44.54-22.11,8.77,12.17-35,35.28-7.09-9.83Zm6.37-5.9,12.12-11L396,120.88Z"/><path class="cls-1" d="M427.65,154.9,419,159l-5-10.67,8.7-4.06Z"/><path class="cls-1" d="M434,184.37l-23,5.32-2.43-10.51,47.79-11.05,3.39,14.67-20.93,7.43,22-2.65,3.41,14.75-47.79,11L414,202.52l22.46-5.19-23.12,2.33-1.58-6.83Z"/><path class="cls-1" d="M425.24,230.13,425,224.6l-8.23-.51-.57-11.75,49.38,5.71.73,15-48.59,10.52-.59-12.11Zm8.55-1.47,16.15-2.61-16.32-1Z"/><path class="cls-1" d="M436.25,256.07l-19.92-2.15,1.21-11.22L466.3,248l-1,9.61-20.43,3.85,19.78,2.15L463.4,274.8l-48.76-5.28,1-9.41Z"/><path class="cls-1" d="M447.37,297.91l-37.62-9.85,3.12-11.93L450.49,286l1.65-6.3,9.83,2.57-6.44,24.6-9.83-2.57Z"/><path class="cls-1" d="M453.16,313.53l-8.49,20.61-9.39-3.87,3.76-9.14-8.36-3.44-3.17,7.71-8.75-3.6,3.18-7.71-9.46-3.89-3.79,9.2-9.4-3.87,8.51-20.67Z"/><path class="cls-1" d="M410.78,335.81l-17.26-10.2,5.74-9.71,42.22,25-4.91,8.32-20.2-4.93,17.13,10.12-5.74,9.71-42.22-24.94,4.81-8.15Z"/><path class="cls-1" d="M376.86,349.92l7.53-9.86,39,29.77-7.53,9.86Z"/><path class="cls-1" d="M411.73,384.89l-15.27,16.22-7.4-7,6.77-7.19-6.58-6.2-5.71,6.07-6.89-6.48,5.72-6.07-7.45-7-6.82,7.25-7.4-7L376,351.27Z"/><path class="cls-1" d="M364.24,390.6,351.71,375l8.81-7,30.66,38.28-7.55,6.05-17.14-11.77L378.93,416l-8.81,7.05-30.66-38.29,7.38-5.91Z"/><path class="cls-1" d="M362.91,428l-11,6.28c-8.46,4.81-15.11,3.76-19.13-3.31L320.7,409.74c-4-7.06-1.47-13.35,6.93-18.13l11-6.27Zm-31.5-24.47,12.19,21.43c.56,1,1.35,1.66,2.75.86l.79-.45-14.28-25.09-.79.45C330.67,401.49,330.85,402.51,331.41,403.49Z"/><path class="cls-1" d="M318.84,411.07l8.29,22.11c3.1,8.27.09,14.41-8.31,17.56s-14.77.52-17.87-7.75l-8.28-22.11c-3.13-8.33-.11-14.47,8.35-17.64S315.72,402.74,318.84,411.07Zm-15.14,4.11L313,440c.36,1,1,1.65,2.23,1.18s1.22-1.35.85-2.33L306.78,414c-.37-1-1-1.71-2.2-1.27S303.33,414.19,303.7,415.18Z"/><path class="cls-1" d="M281.48,460.62l-12.28,1.75-5.49-38.49-9.92,1.41-1.44-10.06,22.2-3.16Z"/><path class="cls-1" d="M235.68,423.59h5.54l.92-8.19h11.77l-8.19,49-15,0-8.07-49.05h12.12Zm1,8.62,1.81,16.26,1.76-16.26Z"/><path class="cls-1" d="M200,461.44l-12.11-2.66,8.33-38-9.78-2.15,2.17-9.92,21.9,4.8Z"/><path class="cls-1" d="M176.27,404.38l11.78,3.9-15.42,46.56L160.86,451Z"/><path class="cls-1" d="M156.08,417.62l8.51-18.14,10.21,4.78L154,448.67l-8.75-4.1,3-20.58-8.45,18-10.21-4.79,20.82-44.41,8.56,4Z"/><path class="cls-1" d="M122.56,433.08l-18.62-12.24,5.58-8.49,8.26,5.43,5-7.55-7-4.58,5.2-7.91,7,4.58,5.62-8.55-8.31-5.46,5.58-8.49,18.67,12.28Z"/><path class="cls-1" d="M112.73,375l4.14,3.67,6.12-5.53,8.81,7.8L93.19,412.25,82,402.31l26.44-42.1,9.07,8Zm-4.93,7.14-9.42,13.38,12.09-11Z"/><path class="cls-1" d="M237.43,474.86A237.49,237.49,0,0,1,145,18.66,237.49,237.49,0,0,1,329.85,456.2,236,236,0,0,1,237.43,474.86Zm0-470.35C109,4.51,4.51,109,4.51,237.43S109,470.35,237.43,470.35,470.35,365.86,470.35,237.43,365.86,4.51,237.43,4.51Zm.9,405.47a172.9,172.9,0,1,1,67.52-13.63A172.48,172.48,0,0,1,238.33,410Zm0-342.4c-93.16,0-169,75.79-169,169s75.79,168.94,169,168.94,168.95-75.79,168.95-168.94S331.49,67.58,238.33,67.58Z"/></g></g></svg>