<svg xmlns="http://www.w3.org/2000/svg" viewBox="0 0 2348.99 615.09"><defs><style>.cls-1{fill:#9e9e9e;}.cls-2{fill:#4c4c4c;}.cls-3{fill:#fff;}.cls-4{fill:#f05136;}</style></defs><g id="Capa_2" data-name="Capa 2"><g id="Capa_4" data-name="Capa 4"><path class="cls-1" d="M188.19,144.28s-56.32-11.35-51.53,106.43-.29,145.07-.29,145.07H369.16l7.19-200.15L336.8,144Z"/><polygon class="cls-2" points="125.67 391.98 94.71 411.75 94.71 453.3 106.3 472.48 152.64 484.46 229.34 478.87 323.62 479.67 376.35 478.87 431.48 455.7 414.7 410.96 401.92 395.61 345.99 392.18 128.27 392.18 125.67 391.98"/><path class="cls-3" d="M744.6,127.32l-48.12,96.24-48.11-96.24H600.46V346.64h55.13v-96l41.34,82.49,41.35-82.49v96h53.93V127.32Z"/><path class="cls-3" d="M963.64,139.14c-8-8-17.69-11.82-29.15-11.82h-73c-11.46,0-21.43,3.8-29.45,11.82s-12.24,17.55-12.24,29v178.5H874.9V278.33h45.54v68.31h55.13V168.14A39.25,39.25,0,0,0,963.64,139.14Zm-43.2,97.24H874.9V168.07h45.54Z"/><path class="cls-3" d="M877.4,407.62c-8-8-17.6-11.84-29-11.84H775.3c-11.46,0-21.48,3.82-29.49,11.84s-12.32,17.58-12.32,29V615.09h55.12V546.78h45.55v68.31h55.12V436.65C889.28,425.2,885.41,415.63,877.4,407.62Zm-43.24,97.21H788.61V436.52h45.55Z"/><path class="cls-3" d="M1674.12,407.62c-8-8-17.86-11.84-29.32-11.84h-73c-11.45,0-21.22,3.82-29.24,11.84a39.36,39.36,0,0,0-12.07,29V615.09h55.13V546.78h45.54v68.31h55.13V436.65A39.49,39.49,0,0,0,1674.12,407.62Zm-88.54,28.9h45.54v68.31h-45.54Z"/><path class="cls-3" d="M1093,127.32v95.81l-47.89-95.81h-48V346.64h55.13v-96l47.85,96h48V127.32Z"/><path class="cls-3" d="M1168.52,127.32v40.75h34.76V346.64h55.13V168.07h34.75V127.32Z"/><path class="cls-3" d="M1437,168.07V127.32H1313.53V346.64H1437V305.89h-68.32V250.76h53.93V208.82h-53.93V168.07Z"/><path class="cls-3" d="M1553.22,127.32v95.81l-48-95.81h-47.83V346.64h55.13v-96l47.68,96h48.19V127.32Z"/><path class="cls-3" d="M1635.92,127.32V346.64h55.13V127.32Z"/><path class="cls-3" d="M1842.05,168.07V127.32H1718.61V346.64h123.44V305.89h-68.31V250.76h53.93V208.82h-53.93V168.07Z"/><path class="cls-3" d="M1964.29,127.32v95.81l-48.46-95.81h-48.61V346.64h55.13v-96l48.47,96h48.6V127.32Z"/><path class="cls-3" d="M2171.72,139.14c-8-8-17.59-11.82-29-11.82H2047V346.64h95.68a39.3,39.3,0,0,0,29-11.93c8-8,11.89-17.64,11.89-29.09V168.14A39.18,39.18,0,0,0,2171.72,139.14Zm-43.24,166.75h-27.56V168.07h27.56Z"/><path class="cls-3" d="M2336.9,139.14c-8-8-17.81-11.82-29.26-11.82h-55c-11.46,0-21.3,3.8-29.33,11.82a39.48,39.48,0,0,0-12.14,29V305.62a39.67,39.67,0,0,0,12.14,29.09c8,8,17.87,11.93,29.33,11.93h55a41,41,0,0,0,41.35-41V168.14A39.32,39.32,0,0,0,2336.9,139.14Zm-43,166.75H2266.3V168.07h27.57Z"/><path class="cls-3" d="M655.59,574.34V395.78H600.46V615.09H710.72V574.34Z"/><path class="cls-3" d="M1040.29,574.34V395.78H985.16V615.09h110.26V574.34Z"/><path class="cls-3" d="M1123,395.78V615.09h55.13V395.78Z"/><path class="cls-3" d="M1301.55,395.78v95.86l-48.31-95.86h-47.57V615.09h53.93v-96l48.64,96h48.44V395.78Z"/><path class="cls-3" d="M1507.68,436.52V395.78H1384.24V615.09h123.44V574.34h-68.31V519.22h53.93V478.47h-53.93v-42Z"/><path d="M389.53,378.28V197.35c0-39.63-31.3-71.23-70.92-71.23H190.07a71,71,0,0,0-71.39,71.23V378.28C87.52,383,67,408.19,67,438.75A61.12,61.12,0,0,0,128.21,500H240.92v82.69H170.81a16.18,16.18,0,0,0,0,32.36H343.39a16.18,16.18,0,0,0,0-32.36H274.48V500h106a60.91,60.91,0,0,0,61-61.29C441.48,408.19,419.49,383,389.53,378.28ZM149.84,343h71.37a15.58,15.58,0,1,0,0-31.16H149.84V290.31h41.83c8.82,0,16-8,16-16.78s-7.14-16.77-16-16.77H149.84V235.18h71.37a15.58,15.58,0,1,0,0-31.16H149.84v-6.67c0-22,18.28-40.07,40.23-40.07H318.61c21.95,0,39.76,18.11,39.76,40.07V204h-71.7a15.58,15.58,0,1,0,0,31.16h71.7v21.58H317c-8.82,0-16,7.95-16,16.77s7.15,16.78,16,16.78h41.36v21.57h-71.7a15.58,15.58,0,1,0,0,31.16h71.7V376.6H149.84ZM380.47,466.48H128.21c-16.3,0-29.55-12.26-29.55-28.54a27.66,27.66,0,0,1,7.09-18.71,29.45,29.45,0,0,1,17.64-9.91,28.66,28.66,0,0,1,4.82-.36H380.28a29.5,29.5,0,0,1,4.48.54l.18.13.07.06.29.07a29.59,29.59,0,0,1,17.62,9.95c3.23,3.77,7.09,9.19,7.09,18.23C410,454.22,396.76,466.48,380.47,466.48Z"/><path class="cls-4" d="M255.29,295.94a22.75,22.75,0,1,0-22.75-22.75A22.75,22.75,0,0,0,255.29,295.94Z"/><path class="cls-4" d="M447.06,196.61v-2.87c0-26.14-4.57-51.51-14.68-75.42A193.24,193.24,0,0,0,117.44,56.75C99.65,74.53,86.52,95.24,76.76,118.32c-10.11,23.91-14.4,49.28-14.4,75.42v2.87C24,206.12,0,238.37,0,276.79c0,45.76,36.19,81.83,81.91,83h9.21V193.74c0-89.46,73.52-162,163-162s163,72.52,163,162V359.82h9.48c45.72-1.2,82.38-37.27,82.38-83A82.8,82.8,0,0,0,447.06,196.61Zm-388.3,126C42,314.2,30.94,297,30.94,276.83a50.09,50.09,0,0,1,10.43-31.29c4.72-6,12.6-10.86,17.39-14.29Zm403.58-10a59,59,0,0,1-14.08,9.94v-91.8a51,51,0,0,1,14.08,81.86Z"/><rect class="cls-3" x="1625.36" y="505.39" width="723.52" height="41.24"/><polygon class="cls-4" points="57.06 213.61 15.62 250.44 15.62 296.3 49.45 337.05 67.15 337.05 78.22 213.61 57.06 213.61"/><polygon class="cls-4" points="431.48 213.61 431.48 346.64 490.2 320.27 495 273.53 482.67 236.88 455.71 213.61 431.48 213.61"/></g></g></svg>