<svg xmlns="http://www.w3.org/2000/svg" viewBox="0 0 513.32 620.37"><defs></defs><g id="Capa_2" data-name="Capa 2"><g id="Capa_6" data-name="Capa 6"><path class="cls-1" d="M392.87,381.52V199A71.82,71.82,0,0,0,321,127.2H191.7a72,72,0,0,0-72,72V381.52c-32.2,4.92-53.19,31.42-52.14,63.27,1.1,33.35,29.08,59.54,62.46,59.54H243v83.4H172.28A16.32,16.32,0,0,0,156,604.05h0a16.32,16.32,0,0,0,16.32,16.32H346.34a16.32,16.32,0,0,0,16.32-16.32h0a16.32,16.32,0,0,0-16.32-16.32H276.83v-83.4H382.67c33.38,0,61.38-26.15,62.57-59.51C446.37,413,423.84,386.44,392.87,381.52ZM191.53,158.63H321.34a40.23,40.23,0,0,1,40.11,40.11v7H289.13a16,16,0,0,0-16.06,14.47,15.77,15.77,0,0,0,16.06,17h72.32V259H319.73c-8.89,0-16.1,8-16.1,16.92s7.21,16.92,16.1,16.92h41.72v21.76H289.13A16,16,0,0,0,273.07,329a15.77,15.77,0,0,0,16.06,17h72.32v33.85H151.13V346h72c8.27,0,15.45-6.22,16.06-14.47.71-9.49-6.75-16.95-16.06-16.95h-72V292.8h42.18c8.89,0,16.1-8,16.1-16.92S202.2,259,193.31,259H151.13V237.2h72c8.27,0,15.45-6.23,16.06-14.47a15.76,15.76,0,0,0-16.06-17h-72V199A40.52,40.52,0,0,1,191.53,158.63Zm192.6,311.86H128.87c-16.06,0-29.46-12.91-29.37-29a27.92,27.92,0,0,1,7.16-18.7,29.77,29.77,0,0,1,17.79-10,30.32,30.32,0,0,1,4.86-.36H383.54a31.55,31.55,0,0,1,4.52.54l.18.13.07.06.3.08a29.84,29.84,0,0,1,17.77,10c3.19,3.72,7,9,7.15,17.76C413.85,457.31,400.37,470.49,384.13,470.49Z"/><path class="cls-1" d="M255.14,298.36a23,23,0,1,0-20.49-20.49A23,23,0,0,0,255.14,298.36Z"/><path class="cls-1" d="M450.89,198.28V195.4c0-26.36-4.61-52-14.8-76.07a194.91,194.91,0,0,0-317.65-62.1c-17.94,17.94-31.18,38.83-41,62.1C67.22,143.44,62.89,169,62.89,195.4v2.88C24.21,207.88,0,240.41,0,279.16c0,46.16,36.5,82.54,82.62,83.75H91.9V198c0-89.11,70.34-163.21,159.41-165.85,92.46-2.75,169.37,71.41,169.37,163.29V362.91h9.56c46.11-1.21,83.08-37.59,83.08-83.75A83.52,83.52,0,0,0,450.89,198.28Z"/></g></g></svg>